<?xml version="1.0" encoding="UTF-8" standalone="no"?>
<!-- Generator: Adobe Illustrator 19.0.0, SVG Export Plug-In . SVG Version: 6.00 Build 0)  -->

<svg
   version="1.1"
   id="Layer_1"
   x="0px"
   y="0px"
   viewBox="0 0 381.135 381.135"
   style="enable-background:new 0 0 381.135 381.135;"
   xml:space="preserve"
   sodipodi:docname="celsium.svg"
   inkscape:version="1.1.2 (0a00cf5339, 2022-02-04, custom)"
   xmlns:inkscape="http://www.inkscape.org/namespaces/inkscape"
   xmlns:sodipodi="http://sodipodi.sourceforge.net/DTD/sodipodi-0.dtd"
   xmlns="http://www.w3.org/2000/svg"
   xmlns:svg="http://www.w3.org/2000/svg"><defs
   id="defs41" /><sodipodi:namedview
   id="namedview39"
   pagecolor="#505050"
   bordercolor="#ffffff"
   borderopacity="1"
   inkscape:pageshadow="0"
   inkscape:pageopacity="0"
   inkscape:pagecheckerboard="1"
   showgrid="false"
   inkscape:zoom="1.3800884"
   inkscape:cx="190.20521"
   inkscape:cy="190.5675"
   inkscape:window-width="1366"
   inkscape:window-height="703"
   inkscape:window-x="0"
   inkscape:window-y="0"
   inkscape:window-maximized="1"
   inkscape:current-layer="g6" />
<g
   id="g6">
	<path
   style="fill:#ffffff;fill-opacity:1"
   d="M330.82,308.257c-25.808,26.451-61.844,42.87-101.722,42.87   c-78.478,0-142.096-63.619-142.096-142.096S150.62,66.934,229.098,66.934c39.878,0,75.914,16.419,101.722,42.87h38.823   c-31.201-44.062-82.567-72.879-140.545-72.879c-94.905,0-172.105,77.209-172.105,172.105s77.2,172.105,172.105,172.105   c57.977,0,109.344-28.817,140.545-72.879L330.82,308.257L330.82,308.257z"
   id="path2" />
	<path
   style="fill:#ffffff;fill-opacity:1"
   d="M48.992,75c-20.678,0-37.5-16.823-37.5-37.5S28.314,0,48.992,0s37.5,16.823,37.5,37.5   S69.669,75,48.992,75z M48.992,15c-12.407,0-22.5,10.094-22.5,22.5S36.585,60,48.992,60s22.5-10.094,22.5-22.5S61.398,15,48.992,15   z"
   id="path4" />
</g>
<g
   id="g8">
</g>
<g
   id="g10">
</g>
<g
   id="g12">
</g>
<g
   id="g14">
</g>
<g
   id="g16">
</g>
<g
   id="g18">
</g>
<g
   id="g20">
</g>
<g
   id="g22">
</g>
<g
   id="g24">
</g>
<g
   id="g26">
</g>
<g
   id="g28">
</g>
<g
   id="g30">
</g>
<g
   id="g32">
</g>
<g
   id="g34">
</g>
<g
   id="g36">
</g>
</svg>
