<?xml version="1.0" encoding="UTF-8" standalone="no"?>
<svg
   width="512px"
   height="512px"
   viewBox="0 0 512 512"
   aria-hidden="true"
   role="img"
   class="iconify iconify--fxemoji"
   preserveAspectRatio="xMidYMid meet"
   version="1.1"
   id="svg10"
   sodipodi:docname="clock_work_mcu.svg"
   inkscape:version="1.1.2 (0a00cf5339, 2022-02-04, custom)"
   xmlns:inkscape="http://www.inkscape.org/namespaces/inkscape"
   xmlns:sodipodi="http://sodipodi.sourceforge.net/DTD/sodipodi-0.dtd"
   xmlns="http://www.w3.org/2000/svg"
   xmlns:svg="http://www.w3.org/2000/svg">
  <defs
     id="defs14" />
  <sodipodi:namedview
     id="namedview12"
     pagecolor="#505050"
     bordercolor="#ffffff"
     borderopacity="1"
     inkscape:pageshadow="0"
     inkscape:pageopacity="0"
     inkscape:pagecheckerboard="1"
     showgrid="false"
     inkscape:zoom="0.72644173"
     inkscape:cx="258.10742"
     inkscape:cy="341.39008"
     inkscape:window-width="1366"
     inkscape:window-height="703"
     inkscape:window-x="0"
     inkscape:window-y="0"
     inkscape:window-maximized="1"
     inkscape:current-layer="svg10" />
  <path
     d="m 350.01031,261.04985 c -48.94999,0 -88.77281,39.82283 -88.77281,88.77281 0,48.94999 39.82282,88.77281 88.77281,88.77281 48.94998,0 88.77281,-39.82282 88.77281,-88.77281 0,-48.94998 -39.82283,-88.77281 -88.77281,-88.77281 z m 0,157.81833 c -38.07104,0 -69.04552,-30.97316 -69.04552,-69.04552 0,-38.07235 30.97448,-69.04551 69.04552,-69.04551 38.07104,0 69.04552,30.97316 69.04552,69.04551 0,38.07236 -30.97448,69.04552 -69.04552,69.04552 z"
     id="path2-5"
     style="fill:#ffffff;stroke-width:1.31515;fill-opacity:1" />
  <path
     d="m 483.45886,432.12361 -11.25114,-11.25114 c 6.42058,-10.99073 11.27612,-22.67323 14.49956,-34.88311 h 15.86074 c 5.44868,0 9.86365,-4.41628 9.86365,-9.86364 v -52.60611 c 0,-5.44736 -4.41497,-9.86365 -9.86365,-9.86365 h -15.86074 c -3.22344,-12.21119 -8.0803,-23.89238 -14.49956,-34.88311 l 11.25114,-11.25113 c 3.85208,-3.85208 3.85208,-10.09774 0,-13.94851 l -37.19778,-37.19778 c -3.8534,-3.85208 -10.09775,-3.85208 -13.94983,0 l -11.24982,11.24982 c -10.98941,-6.41926 -22.67191,-11.27481 -34.88311,-14.49956 v -15.86074 c 0,-5.44737 -4.41496,-9.86365 -9.86364,-9.86365 h -52.60611 c -5.44868,0 -9.86365,4.41628 -9.86365,9.86365 v 15.86074 c -12.21119,3.22475 -23.89369,8.0803 -34.88442,14.49956 l -11.24982,-11.24982 c -1.85042,-1.85042 -4.35841,-2.88939 -6.97557,-2.88939 -2.61715,0 -5.12383,1.03897 -6.97557,2.88939 l -37.19778,37.19647 c -3.85208,3.85208 -3.85208,10.09774 0,13.94851 l 11.25113,11.25113 c -6.42057,10.98941 -11.27612,22.67192 -14.49956,34.88311 h -15.86074 c -5.44868,0 -9.86364,4.41628 -9.86364,9.86364 v 52.60611 c 0,5.44737 4.41496,9.86365 9.86364,9.86365 h 15.86074 c 3.22344,12.21119 8.0803,23.89369 14.49956,34.88311 l -11.25113,11.25113 c -3.85208,3.85208 -3.85208,10.09774 0,13.94851 l 37.19647,37.19778 c 1.85042,1.85042 4.35841,2.88939 6.97557,2.88939 2.61715,0 5.12383,-1.03897 6.97557,-2.88939 l 11.24981,-11.24982 c 10.99073,6.41926 22.67324,11.27481 34.88443,14.49956 v 15.86074 c 0,5.44737 4.41497,9.86365 9.86364,9.86365 h 52.60611 c 5.44868,0 9.86365,-4.41628 9.86365,-9.86365 v -15.86074 c 12.21119,-3.22475 23.89369,-8.0803 34.88311,-14.49956 l 11.24982,11.24982 c 3.85339,3.85208 10.09774,3.85208 13.94982,0 l 37.19778,-37.19778 c 3.85208,-3.84945 3.85208,-10.09511 0.001,-13.94719 z m -14.24179,-57.9601 c -3.0893,15.22026 -9.05878,29.58699 -17.74273,42.70169 -2.59085,3.91127 -2.06742,9.10481 1.24808,12.42031 l 9.81236,9.81104 -23.24927,23.24927 -9.81104,-9.81104 c -3.31945,-3.31682 -8.51167,-3.83762 -12.42031,-1.2494 -13.1147,8.68395 -27.48143,14.65475 -42.703,17.74404 -4.59778,0.93376 -7.90144,4.97522 -7.90144,9.66637 v 13.81963 H 333.5709 v -13.81963 c 0,-4.69115 -3.30498,-8.73392 -7.90144,-9.66637 -15.22158,-3.09061 -29.58962,-9.06009 -42.70432,-17.74404 -3.90995,-2.58822 -9.10349,-2.06742 -12.4203,1.2494 l -9.81104,9.81104 -23.24796,-23.24796 9.81236,-9.81104 c 3.3155,-3.3155 3.83893,-8.51035 1.24808,-12.4203 -8.68396,-13.11339 -14.65475,-27.48143 -17.74536,-42.70301 -0.93244,-4.59646 -4.97522,-7.90012 -9.66637,-7.90012 h -13.81831 v -32.87882 h 13.81962 c 4.68984,0 8.73393,-3.30366 9.66638,-7.90012 3.09192,-15.22158 9.06271,-29.58962 17.74535,-42.70301 2.59085,-3.91127 2.06742,-9.1048 -1.24808,-12.4203 l -9.81235,-9.81104 23.24795,-23.24796 9.81104,9.81104 c 3.31682,3.31682 8.51167,3.83762 12.4203,1.2494 13.11471,-8.68396 27.48143,-14.65475 42.70433,-17.74404 4.59646,-0.93245 7.90143,-4.97523 7.90143,-9.66638 v -13.82357 h 32.87882 v 13.81963 c 0,4.69115 3.30367,8.73261 7.90144,9.66637 15.22158,3.09061 29.58831,9.06009 42.70301,17.74404 3.90995,2.58822 9.10349,2.06742 12.4203,-1.24939 l 9.81104,-9.81104 23.24927,23.24927 -9.81235,9.81104 c -3.3155,3.3155 -3.83893,8.51035 -1.24808,12.4203 8.68526,13.1147 14.65474,27.48143 17.74272,42.70169 0.93376,4.59778 4.97522,7.90144 9.66769,7.90144 h 13.81831 v 32.87882 h -13.82094 c -4.69115,10e-4 -8.73261,3.30498 -9.66637,7.90275 z"
     id="path4-9"
     style="fill:#ffffff;stroke-width:1.31515;fill-opacity:1" />
  <path
     d="m 350.01031,303.13474 c -25.74412,0 -46.68792,20.94381 -46.68792,46.68792 0,25.74412 20.9438,46.68793 46.68792,46.68793 25.74411,0 46.68792,-20.94381 46.68792,-46.68793 0,-25.74411 -20.94381,-46.68792 -46.68792,-46.68792 z m 0,73.64855 c -14.86649,0 -26.96063,-12.09414 -26.96063,-26.96063 0,-14.86648 12.09414,-26.96063 26.96063,-26.96063 14.86648,0 26.96063,12.09415 26.96063,26.96063 0,14.86649 -12.09415,26.96063 -26.96063,26.96063 z"
     id="path8-7"
     style="fill:#ffffff;stroke-width:1.31515;fill-opacity:1" />
  <path
     fill="#ff473e"
     d="m 205.01033,36.026336 c 93.03371,0 168.72299,75.689284 168.72299,168.722994 0,93.03371 -75.68928,168.72299 -168.72299,168.72299 -93.03451,0 -168.722994,-75.68928 -168.722994,-168.72299 0,-93.03371 75.688484,-168.722994 168.722994,-168.722994 m 0,-34.200336 C 92.938764,1.826 2.087,92.677764 2.087,204.74933 c 0,112.07156 90.851764,202.92332 202.92333,202.92332 112.07156,0 202.92332,-90.85176 202.92332,-202.92332 C 407.93365,92.677764 317.08189,1.826 205.01033,1.826 Z"
     id="path4"
     style="stroke-width:0.79954;fill:#ffffff;fill-opacity:1" />
  <path
     fill="#3a5d66"
     d="m 205.01033,219.83985 c -8.16891,0 -14.7915,-6.62259 -14.7915,-14.7915 V 73.930942 c 0,-8.168903 6.62259,-14.791495 14.7915,-14.791495 8.1689,0 14.79149,6.622592 14.79149,14.791495 V 205.04835 c 0,8.16891 -6.62259,14.7915 -14.79149,14.7915 z"
     id="path6"
     style="stroke-width:0.79954;fill:#ffffff;fill-opacity:1" />
  <path
     fill="#183f4c"
     d="m 262.57483,105.01147 c -7.07913,-4.08405 -16.12193,-1.65824 -20.20518,5.41689 l -42.6171,73.83834 c -9.13315,2.33706 -15.88447,10.6211 -15.88447,20.48183 0,11.67648 9.46576,21.14144 21.14145,21.14144 11.67568,0 21.14144,-9.46576 21.14144,-21.14144 0,-1.97167 -0.27584,-3.87777 -0.78035,-5.68793 l 42.6195,-73.84474 c 4.08485,-7.07434 1.65904,-16.12034 -5.41529,-20.20439 z"
     id="path8"
     style="stroke-width:0.79954;fill:#ffffff;fill-opacity:1" />
</svg>
