<?xml version="1.0" encoding="UTF-8" standalone="no"?>
<svg
   width="64"
   height="64"
   viewBox="0 0 64 64"
   version="1.1"
   id="svg11"
   sodipodi:docname="internet-online.svg"
   inkscape:version="1.1.2 (0a00cf5339, 2022-02-04, custom)"
   xmlns:inkscape="http://www.inkscape.org/namespaces/inkscape"
   xmlns:sodipodi="http://sodipodi.sourceforge.net/DTD/sodipodi-0.dtd"
   xmlns="http://www.w3.org/2000/svg"
   xmlns:svg="http://www.w3.org/2000/svg">
  <sodipodi:namedview
     id="namedview13"
     pagecolor="#505050"
     bordercolor="#ffffff"
     borderopacity="1"
     inkscape:pageshadow="0"
     inkscape:pageopacity="0"
     inkscape:pagecheckerboard="1"
     showgrid="false"
     inkscape:zoom="5.811534"
     inkscape:cx="31.57514"
     inkscape:cy="32.693605"
     inkscape:window-width="1366"
     inkscape:window-height="703"
     inkscape:window-x="0"
     inkscape:window-y="0"
     inkscape:window-maximized="1"
     inkscape:current-layer="svg11"
     width="64px" />
  <defs
     id="defs4">
    <style
       id="style2">.cls-1{fill:#04009a;}.cls-2{fill:#77acf1;}</style>
  </defs>
  <g
     data-name="33. Network"
     id="_33._Network"
     style="fill:#ffffff"
     transform="scale(2.003444)">
    <path
       class="cls-1"
       d="M 29.83,17.16 A 15.24,15.24 0 0 0 30,15 15,15 0 1 0 15,30 15.24,15.24 0 0 0 17.16,29.83 9,9 0 0 0 29.83,17.16 Z M 15.41,28 a 18.64,18.64 0 0 1 -4.72,-8 h 3.84 A 8.81,8.81 0 0 0 14,23 9,9 0 0 0 15.51,28 Z M 15.52,18 H 10.27 A 17.52,17.52 0 0 1 10,15 18.59,18.59 0 0 1 10.26,12 h 9.48 A 17.63,17.63 0 0 1 20,14.53 9.09,9.09 0 0 0 15.52,18 Z M 2,15 A 12.9,12.9 0 0 1 2.36,12 H 8.24 A 21.18,21.18 0 0 0 8,15 21.18,21.18 0 0 0 8.24,18 H 2.36 A 12.9,12.9 0 0 1 2,15 Z M 19.31,10 H 10.69 A 18.3,18.3 0 0 1 15,2.43 18.3,18.3 0 0 1 19.31,10 Z M 22,14.07 A 20.15,20.15 0 0 0 21.76,12 h 5.88 A 12.9,12.9 0 0 1 28,15 c 0,0.17 0,0.34 0,0.51 A 9,9 0 0 0 23,14 9.26,9.26 0 0 0 22,14.07 Z M 27,10 H 21.36 A 19.9,19.9 0 0 0 17.46,2.24 13,13 0 0 1 27,10 Z M 12.54,2.24 A 19.9,19.9 0 0 0 8.64,10 H 3 A 13,13 0 0 1 12.54,2.24 Z M 3,20 H 8.63 A 20.34,20.34 0 0 0 12.54,27.76 13,13 0 0 1 3,20 Z m 20,10 a 7,7 0 1 1 7,-7 7,7 0 0 1 -7,7 z"
       id="path6"
       style="fill:#ffffff" />
  </g>
  <polygon
     style="fill:#66ff33"
     points="222.8,279.552 173.472,230.832 140.952,266.672 226.608,351.256 376.296,166.584 340.176,134.728 "
     id="polygon4"
     transform="matrix(0.10219908,0,0,0.10219908,19.344846,22.345965)" />
</svg>
