<?xml version="1.0" encoding="UTF-8" standalone="no"?>
<!-- Generator: Adobe Illustrator 18.0.0, SVG Export Plug-In . SVG Version: 6.00 Build 0)  -->

<svg
   version="1.1"
   id="Capa_1"
   x="0px"
   y="0px"
   viewBox="0 0 63.999999 63.999999"
   xml:space="preserve"
   sodipodi:docname="security.svg"
   width="64"
   height="64"
   inkscape:version="1.1.2 (0a00cf5339, 2022-02-04, custom)"
   xmlns:inkscape="http://www.inkscape.org/namespaces/inkscape"
   xmlns:sodipodi="http://sodipodi.sourceforge.net/DTD/sodipodi-0.dtd"
   xmlns="http://www.w3.org/2000/svg"
   xmlns:svg="http://www.w3.org/2000/svg"><defs
   id="defs41">
	
	
</defs><sodipodi:namedview
   id="namedview39"
   pagecolor="#505050"
   bordercolor="#ffffff"
   borderopacity="1"
   inkscape:pageshadow="0"
   inkscape:pageopacity="0"
   inkscape:pagecheckerboard="1"
   showgrid="false"
   width="64px"
   inkscape:zoom="4.4732619"
   inkscape:cx="26.714286"
   inkscape:cy="44.263001"
   inkscape:window-width="1366"
   inkscape:window-height="703"
   inkscape:window-x="0"
   inkscape:window-y="0"
   inkscape:window-maximized="1"
   inkscape:current-layer="Capa_1" />
<path
   d="m 58.402742,16.519018 c -0.03281,-1.725687 -0.06414,-3.355918 -0.06414,-4.93305 0,-1.235574 -1.001406,-2.2372783 -2.237278,-2.2372783 -9.568094,0 -16.852971,-2.7497643 -22.925243,-8.6537929 -0.868661,-0.84479633 -2.251,-0.84449803 -3.119363,0 -6.071675,5.9040286 -13.355359,8.6537929 -22.9228562,8.6537929 -1.2355742,0 -2.2372784,1.0017043 -2.2372784,2.2372783 0,1.577431 -0.031024,3.208257 -0.064135,4.934243 -0.3066563,16.059483 -0.726668,38.05372 26.0511676,47.335442 0.23745,0.08233 0.485042,0.123498 0.732635,0.123498 0.247592,0 0.495482,-0.04117 0.732634,-0.123498 C 59.128813,54.573632 58.709398,32.578799 58.402742,16.519018 Z M 31.616553,59.367673 C 8.6510389,51.025011 8.9982645,32.749429 9.3064124,16.605526 9.3249072,15.636635 9.3428054,14.697575 9.3553342,13.77701 18.31638,13.39876 25.482234,10.683301 31.616553,5.3394868 c 6.134916,5.3438142 13.301962,8.0595722 22.263605,8.4375232 0.01253,0.920267 0.03043,1.85873 0.04892,2.827025 0.307849,16.144499 0.654777,34.420677 -22.312527,42.763638 z"
   id="path2"
   style="fill:#ffffff;fill-opacity:1;stroke-width:0.298304;stroke:#ffffff;stroke-opacity:0;opacity:1" /><path
   d="M 39.320845,24.248367 28.522546,35.04607 23.914647,30.438171 c -0.873732,-0.873433 -2.290376,-0.873433 -3.16381,0 -0.873732,0.87403 -0.873732,2.290377 0,3.164108 l 6.189804,6.189804 c 0.436717,0.436717 1.00946,0.655075 1.581905,0.655075 0.572445,0 1.145188,-0.218358 1.581905,-0.655075 L 42.484356,27.412476 c 0.874031,-0.873732 0.874031,-2.290377 2.99e-4,-3.16381 -0.873434,-0.873732 -2.290078,-0.87403 -3.16381,-2.99e-4 z"
   id="path4"
   style="fill:#78ff00;fill-opacity:1;stroke:#000000;stroke-width:0.298304;stroke-opacity:1" /><path
   id="path55736"
   style="fill:#ff2915;fill-opacity:1;stroke:#020000;stroke-width:0.376999;stroke-linecap:round;stroke-linejoin:round;stroke-opacity:0.97828221;paint-order:markers stroke fill"
   d="m 49.939323,46.468751 a 3.9995785,3.8877044 0 0 1 -3.999579,3.887704 3.9995785,3.8877044 0 0 1 -3.999577,-3.887704 3.9995785,3.8877044 0 0 1 3.999577,-3.887707 3.9995785,3.8877044 0 0 1 3.999579,3.887707 z M 45.918818,0.29355566 c 1.256291,0 2.267672,0.81539694 2.267672,1.82824424 V 36.239592 c 0,1.012849 -1.011381,1.828244 -2.267672,1.828244 -1.256292,0 -2.267673,-0.815395 -2.267673,-1.828244 V 2.1217999 c 0,-1.0128473 1.011381,-1.82824424 2.267673,-1.82824424 z" /><g
   id="g63587"
   transform="matrix(0.39439985,0,0,0.39439985,-10.917087,-11.289532)"
   style="fill:#fff100;fill-opacity:1;stroke:#000000;stroke-width:3.35229;stroke-miterlimit:4;stroke-dasharray:none;stroke-opacity:1"><path
     id="path60686"
     style="fill:#fff100;fill-opacity:1;stroke:#000000;stroke-width:3.35229;stroke-linecap:round;stroke-linejoin:round;stroke-miterlimit:4;stroke-dasharray:none;stroke-opacity:1;paint-order:markers stroke fill"
     d="m 118.04072,161.24728 a 9.5480105,9.2809387 0 0 1 -9.54801,9.28094 9.5480105,9.2809387 0 0 1 -9.548009,-9.28094 9.5480105,9.2809387 0 0 1 9.548009,-9.28094 9.5480105,9.2809387 0 0 1 9.54801,9.28094 z M 108.44275,51.015351 c 2.99909,0 5.41351,1.94656 5.41351,4.364483 v 81.447846 c 0,2.41793 -2.41442,4.36448 -5.41351,4.36448 -2.99909,0 -5.41351,-1.94655 -5.41351,-4.36448 V 55.379834 c 0,-2.417923 2.41442,-4.364483 5.41351,-4.364483 z" /></g>
<g
   id="g8">
</g>
<g
   id="g10">
</g>
<g
   id="g12">
</g>
<g
   id="g14">
</g>
<g
   id="g16">
</g>
<g
   id="g18">
</g>
<g
   id="g20">
</g>
<g
   id="g22">
</g>
<g
   id="g24">
</g>
<g
   id="g26">
</g>
<g
   id="g28">
</g>
<g
   id="g30">
</g>
<g
   id="g32">
</g>
<g
   id="g34">
</g>
<g
   id="g36">
</g>
</svg>
