<?xml version="1.0" encoding="UTF-8" standalone="no"?>
<!-- Generator: Adobe Illustrator 18.0.0, SVG Export Plug-In . SVG Version: 6.00 Build 0)  -->

<svg
   version="1.1"
   id="Capa_1"
   x="0px"
   y="0px"
   viewBox="0 0 60 60"
   style="enable-background:new 0 0 60 60;"
   xml:space="preserve"
   sodipodi:docname="wallet.svg"
   inkscape:version="1.1.2 (0a00cf5339, 2022-02-04, custom)"
   xmlns:inkscape="http://www.inkscape.org/namespaces/inkscape"
   xmlns:sodipodi="http://sodipodi.sourceforge.net/DTD/sodipodi-0.dtd"
   xmlns="http://www.w3.org/2000/svg"
   xmlns:svg="http://www.w3.org/2000/svg"><defs
   id="defs85" /><sodipodi:namedview
   id="namedview83"
   pagecolor="#505050"
   bordercolor="#ffffff"
   borderopacity="1"
   inkscape:pageshadow="0"
   inkscape:pageopacity="0"
   inkscape:pagecheckerboard="1"
   showgrid="false"
   inkscape:zoom="4.3833333"
   inkscape:cx="13.117871"
   inkscape:cy="18.707224"
   inkscape:window-width="1366"
   inkscape:window-height="703"
   inkscape:window-x="0"
   inkscape:window-y="0"
   inkscape:window-maximized="1"
   inkscape:current-layer="g50" />
<g
   id="g50"
   style="fill:#ffffff;fill-opacity:1">
	<path
   d="M5.508,12.424c0.502-0.229,0.723-0.822,0.493-1.325c-0.23-0.502-0.822-0.725-1.325-0.493   c-0.693,0.316-1.338,0.731-1.915,1.231c-0.417,0.362-0.462,0.994-0.101,1.411c0.198,0.228,0.477,0.345,0.756,0.345   c0.232,0,0.466-0.08,0.655-0.244C4.504,12.973,4.987,12.662,5.508,12.424z"
   id="path2"
   style="fill:#ffffff;fill-opacity:1" />
	<path
   d="M9,11.884h2c0.553,0,1-0.447,1-1s-0.447-1-1-1H9c-0.553,0-1,0.447-1,1S8.447,11.884,9,11.884z"
   id="path4"
   style="fill:#ffffff;fill-opacity:1" />
	<path
   d="M15,11.884h2c0.553,0,1-0.447,1-1s-0.447-1-1-1h-2c-0.553,0-1,0.447-1,1S14.447,11.884,15,11.884z"
   id="path6"
   style="fill:#ffffff;fill-opacity:1" />
	<path
   d="M11,23.884H9c-0.553,0-1,0.447-1,1s0.447,1,1,1h2c0.553,0,1-0.447,1-1S11.553,23.884,11,23.884z"
   id="path8"
   style="fill:#ffffff;fill-opacity:1" />
	<path
   d="M23,23.884h-2c-0.553,0-1,0.447-1,1s0.447,1,1,1h2c0.553,0,1-0.447,1-1S23.553,23.884,23,23.884z"
   id="path10"
   style="fill:#ffffff;fill-opacity:1" />
	<path
   d="M17,23.884h-2c-0.553,0-1,0.447-1,1s0.447,1,1,1h2c0.553,0,1-0.447,1-1S17.553,23.884,17,23.884z"
   id="path12"
   style="fill:#ffffff;fill-opacity:1" />
	<path
   d="M5.508,23.344c-0.52-0.238-1.003-0.549-1.436-0.925c-0.417-0.361-1.048-0.316-1.411,0.101   c-0.361,0.417-0.316,1.049,0.101,1.411c0.577,0.5,1.221,0.914,1.914,1.231c0.135,0.062,0.276,0.091,0.415,0.091   c0.38,0,0.742-0.217,0.91-0.584C6.23,24.167,6.01,23.573,5.508,23.344z"
   id="path14"
   style="fill:#ffffff;fill-opacity:1" />
	<path
   d="M29,23.884h-2c-0.553,0-1,0.447-1,1s0.447,1,1,1h2c0.553,0,1-0.447,1-1S29.553,23.884,29,23.884z"
   id="path16"
   style="fill:#ffffff;fill-opacity:1" />
	<path
   d="M47,23.884h-2c-0.553,0-1,0.447-1,1s0.447,1,1,1h2c0.553,0,1-0.447,1-1S47.553,23.884,47,23.884z"
   id="path18"
   style="fill:#ffffff;fill-opacity:1" />
	<path
   d="M53,23.884h-2c-0.553,0-1,0.447-1,1s0.447,1,1,1h2c0.553,0,1-0.447,1-1S53.553,23.884,53,23.884z"
   id="path20"
   style="fill:#ffffff;fill-opacity:1" />
	<path
   d="M35,23.884h-2c-0.553,0-1,0.447-1,1s0.447,1,1,1h2c0.553,0,1-0.447,1-1S35.553,23.884,35,23.884z"
   id="path22"
   style="fill:#ffffff;fill-opacity:1" />
	<path
   d="M41,23.884h-2c-0.553,0-1,0.447-1,1s0.447,1,1,1h2c0.553,0,1-0.447,1-1S41.553,23.884,41,23.884z"
   id="path24"
   style="fill:#ffffff;fill-opacity:1" />
	<path
   d="M5.508,53.344c-0.52-0.238-1.003-0.549-1.436-0.925c-0.417-0.361-1.048-0.316-1.411,0.101   c-0.361,0.417-0.316,1.049,0.101,1.411c0.577,0.5,1.221,0.914,1.914,1.231c0.135,0.062,0.276,0.091,0.415,0.091   c0.38,0,0.742-0.217,0.91-0.584C6.23,54.167,6.01,53.573,5.508,53.344z"
   id="path26"
   style="fill:#ffffff;fill-opacity:1" />
	<path
   d="M17,53.884h-2c-0.553,0-1,0.447-1,1s0.447,1,1,1h2c0.553,0,1-0.447,1-1S17.553,53.884,17,53.884z"
   id="path28"
   style="fill:#ffffff;fill-opacity:1" />
	<path
   d="M11,53.884H9c-0.553,0-1,0.447-1,1s0.447,1,1,1h2c0.553,0,1-0.447,1-1S11.553,53.884,11,53.884z"
   id="path30"
   style="fill:#ffffff;fill-opacity:1" />
	<path
   d="M35,53.884h-2c-0.553,0-1,0.447-1,1s0.447,1,1,1h2c0.553,0,1-0.447,1-1S35.553,53.884,35,53.884z"
   id="path32"
   style="fill:#ffffff;fill-opacity:1" />
	<path
   d="M38,54.884c0,0.553,0.447,1,1,1h2c0.553,0,1-0.447,1-1s-0.447-1-1-1h-2C38.447,53.884,38,54.331,38,54.884z"
   id="path34"
   style="fill:#ffffff;fill-opacity:1" />
	<path
   d="M45,55.884h2c0.553,0,1-0.447,1-1s-0.447-1-1-1h-2c-0.553,0-1,0.447-1,1S44.447,55.884,45,55.884z"
   id="path36"
   style="fill:#ffffff;fill-opacity:1" />
	<path
   d="M29,53.884h-2c-0.553,0-1,0.447-1,1s0.447,1,1,1h2c0.553,0,1-0.447,1-1S29.553,53.884,29,53.884z"
   id="path38"
   style="fill:#ffffff;fill-opacity:1" />
	<path
   d="M51,55.884h2c0.553,0,1-0.447,1-1s-0.447-1-1-1h-2c-0.553,0-1,0.447-1,1S50.447,55.884,51,55.884z"
   id="path40"
   style="fill:#ffffff;fill-opacity:1" />
	<path
   d="M23,53.884h-2c-0.553,0-1,0.447-1,1s0.447,1,1,1h2c0.553,0,1-0.447,1-1S23.553,53.884,23,53.884z"
   id="path42"
   style="fill:#ffffff;fill-opacity:1" />
	<path
   d="M44,38.884c0,2.206,1.794,4,4,4s4-1.794,4-4s-1.794-4-4-4S44,36.678,44,38.884z M48,36.884c1.103,0,2,0.897,2,2   s-0.897,2-2,2s-2-0.897-2-2S46.897,36.884,48,36.884z"
   id="path44"
   style="fill:#ffffff;fill-opacity:1" />
	<path
   d="M42.942,5.884l-5.436-5.436c-0.443-0.443-1.166-0.443-1.609,0l-2.046,2.046l-2.046-2.046c-0.443-0.443-1.166-0.443-1.609,0   L24.76,5.884H8c-4.411,0-8,3.589-8,8v38.848c0,3.943,3.209,7.152,7.152,7.152H60v-14v-14v-10v-2v-14H42.942z M36.702,2.472   l3.412,3.412l14,14h-5.391L37.456,8.616c-0.423-0.411-1.086-0.41-1.519,0.011L24.681,19.884H19.29L35.266,3.909l0,0L36.702,2.472z    M45.896,19.884H27.509l9.193-9.193L45.896,19.884z M31,2.472l1.437,1.437L16.462,19.884h-2.874l14-14L31,2.472z M8,7.884h14.76   l-2.061,2.061c-0.303,0.098-0.535,0.329-0.633,0.633l-9.306,9.306H8c-3.309,0-6-2.691-6-6S4.691,7.884,8,7.884z M58,43.884H47   c-2.757,0-5-2.243-5-5s2.243-5,5-5h11V43.884z M58,23.884h-1c-0.553,0-1,0.447-1,1s0.447,1,1,1h1v6H47c-3.859,0-7,3.141-7,7   s3.141,7,7,7h11v8h-1c-0.553,0-1,0.447-1,1s0.447,1,1,1h1v2H7.152C4.312,57.884,2,55.573,2,52.732v-2.204   c0.233-0.25,0.345-0.603,0.241-0.954C2.081,49.028,2,48.459,2,47.884V20.528c0.233-0.25,0.345-0.603,0.241-0.954   c-0.019-0.065-0.026-0.132-0.043-0.197c0.09,0.095,0.181,0.188,0.275,0.278c0.086,0.083,0.175,0.162,0.265,0.241   c0.112,0.098,0.226,0.193,0.343,0.285c0.094,0.074,0.19,0.145,0.287,0.215c0.121,0.087,0.246,0.169,0.372,0.249   c0.101,0.064,0.202,0.126,0.306,0.186c0.132,0.075,0.267,0.145,0.403,0.213c0.105,0.053,0.21,0.106,0.318,0.154   c0.143,0.063,0.289,0.119,0.435,0.174c0.108,0.041,0.215,0.083,0.325,0.119c0.157,0.051,0.317,0.092,0.477,0.134   c0.106,0.027,0.21,0.059,0.318,0.082c0.181,0.039,0.365,0.065,0.55,0.091c0.092,0.013,0.182,0.032,0.275,0.042   c0.28,0.03,0.564,0.047,0.851,0.047h3.816h2.828h2.874h2.828H25.3h22.805h4.953h2.828H58V23.884z M56.942,19.884l-8-8H49   c0.553,0,1-0.447,1-1s-0.447-1-1-1h-2c-0.017,0-0.031,0.009-0.048,0.01l-2.01-2.01H58v12H56.942z"
   id="path46"
   style="fill:#ffffff;fill-opacity:1;stroke:#aa4242;stroke-opacity:0" />
	<path
   d="M55,9.884h-2c-0.553,0-1,0.447-1,1s0.447,1,1,1h2c0.553,0,1-0.447,1-1S55.553,9.884,55,9.884z"
   id="path48"
   style="fill:#ffffff;fill-opacity:1" />
<path
   style="font-variation-settings:'wght' 800;fill:#ffe9a6;fill-opacity:1;stroke:#aa4242;stroke-width:0.0430038;stroke-linecap:round;stroke-linejoin:round;stroke-opacity:0;paint-order:markers stroke fill"
   d="m 32.195997,15.313868 4.534041,-4.534042 4.534041,4.534042 4.534042,4.534041 h -9.068083 -9.068082 z"
   id="path2061" /><path
   style="font-variation-settings:'wght' 800;fill:#ffcb2f;fill-opacity:1;stroke:#e14b4b;stroke-width:0.0430038;stroke-linecap:round;stroke-linejoin:round;stroke-opacity:1;paint-order:markers stroke fill"
   d="m 28.089448,11.207318 8.64059,-8.6405898 8.64059,8.6405898 8.640591,8.640591 H 51.387307 48.763394 L 43.117438,14.190187 C 39.763016,10.828774 37.317047,8.4653392 37.090979,8.3670784 36.80062,8.2408738 36.624964,8.2299246 36.349534,8.3208621 36.104855,8.4016463 34.151605,10.277324 30.285599,14.14397 l -5.702994,5.703939 h -2.566874 -2.566874 z"
   id="path2100" /><path
   style="font-variation-settings:'wght' 800;fill:#fd933a;fill-opacity:1;stroke:#e14b4b;stroke-width:0.0430038;stroke-linecap:round;stroke-linejoin:round;stroke-opacity:1;paint-order:markers stroke fill"
   d="m 22.385453,11.207891 8.640018,-8.6400171 0.655692,0.6556937 0.655694,0.6556937 -7.983712,7.9843237 -7.983713,7.984324 h -1.311998 -1.311999 z"
   id="path3193" /></g>
<g
   id="g52">
</g>
<g
   id="g54">
</g>
<g
   id="g56">
</g>
<g
   id="g58">
</g>
<g
   id="g60">
</g>
<g
   id="g62">
</g>
<g
   id="g64">
</g>
<g
   id="g66">
</g>
<g
   id="g68">
</g>
<g
   id="g70">
</g>
<g
   id="g72">
</g>
<g
   id="g74">
</g>
<g
   id="g76">
</g>
<g
   id="g78">
</g>
<g
   id="g80">
</g>
</svg>
