<?xml version="1.0" encoding="UTF-8" standalone="no"?>
<!-- Generator: Adobe Illustrator 19.0.0, SVG Export Plug-In . SVG Version: 6.00 Build 0)  -->

<svg
   version="1.1"
   id="Layer_1"
   x="0px"
   y="0px"
   viewBox="0 0 512 512"
   style="enable-background:new 0 0 512 512;"
   xml:space="preserve"
   sodipodi:docname="warning-error.svg"
   inkscape:version="1.1.2 (0a00cf5339, 2022-02-04, custom)"
   xmlns:inkscape="http://www.inkscape.org/namespaces/inkscape"
   xmlns:sodipodi="http://sodipodi.sourceforge.net/DTD/sodipodi-0.dtd"
   xmlns:xlink="http://www.w3.org/1999/xlink"
   xmlns="http://www.w3.org/2000/svg"
   xmlns:svg="http://www.w3.org/2000/svg"><defs
   id="defs43"><inkscape:path-effect
     effect="powerclip"
     id="path-effect13663"
     is_visible="true"
     lpeversion="1"
     inverse="true"
     flatten="false"
     hide_clip="false"
     message="Используйте чётно-нечётное правило заливки в диалоговом окне &lt;b&gt;заливки и обводки&lt;/b&gt;, если результат выравнивания после преобразования вырезки в контуры отсутствует." /><inkscape:path-effect
     effect="spiro"
     id="path-effect11355"
     is_visible="true"
     lpeversion="1" /><clipPath
     clipPathUnits="userSpaceOnUse"
     id="clipPath1132"><use
       x="0"
       y="0"
       xlink:href="#g1128"
       id="use1134" /></clipPath><clipPath
     clipPathUnits="userSpaceOnUse"
     id="clipPath13655"><g
       id="g13661"
       style="display:none"><path
         style="fill:none;stroke:#000000;stroke-width:1px;stroke-linecap:butt;stroke-linejoin:miter;stroke-opacity:1"
         d="m 239.33814,327.55188 c -0.15115,-31.44243 -0.26515,-144.74638 -0.002,-165.70117 0.0973,-7.751 8.27269,-16.60178 16.02011,-16.85654 7.86438,-0.25861 17.33104,8.1371 17.35095,16.0057 0.0659,26.03015 0.353,139.03425 -0.14723,167.63253 -0.0679,3.88342 -1.06427,8.17675 -3.6665,11.06015 -3.04858,3.37798 -7.75674,5.57475 -12.45019,5.59769 -4.69345,0.0229 -10.05237,-2.2288 -13.29177,-5.82056 -2.79349,-3.09737 -3.79332,-7.74684 -3.81337,-11.9178 z"
         id="path13657"
         sodipodi:nodetypes="sssssszss" /><path
         style="fill:none;stroke:#000000;stroke-width:1px;stroke-linecap:butt;stroke-linejoin:miter;stroke-opacity:1"
         d="m 250.56132,379.59143 c 3.59587,-1.62788 8.1449,-1.13427 11.83876,0.257 3.10787,1.17056 5.91423,3.56415 7.62836,6.40859 2.08091,3.45307 3.01184,7.81714 2.55226,11.82247 -0.33488,2.91857 -1.68372,5.89396 -3.76268,7.96957 -3.33311,3.32774 -8.07769,6.08725 -12.78702,6.01194 -5.0758,-0.0812 -10.42232,-2.93265 -13.56785,-6.91712 -2.62648,-3.32699 -3.95813,-8.23386 -2.98835,-12.36021 1.31417,-5.59169 5.85372,-10.82331 11.08652,-13.19224 z"
         id="path13659"
         inkscape:original-d="m 250.56132,379.59143 c 3.59587,-1.62788 8.1449,-1.13427 11.83876,0.257 3.10787,1.17056 5.91423,3.56415 7.62836,6.40859 2.08091,3.45307 3.01184,7.81714 2.55226,11.82247 -0.33488,2.91857 -1.68372,5.89396 -3.76268,7.96957 -3.33311,3.32774 -8.07769,6.08725 -12.78702,6.01194 -5.0758,-0.0812 -10.42232,-2.93265 -13.56785,-6.91712 -2.62648,-3.32699 -3.95813,-8.23386 -2.98835,-12.36021 1.31417,-5.59169 5.85372,-10.82331 11.08652,-13.19224 z"
         inkscape:path-effect="#path-effect11355"
         sodipodi:nodetypes="aaaaaaaaa" /></g><path
       id="lpe_path-effect13663"
       class="powerclip"
       d="M -4.9998246,28.165 H 516.99979 v 455.67 H -4.9998246 Z M 239.33814,327.55188 c 0.02,4.17096 1.01988,8.82043 3.81337,11.9178 3.2394,3.59176 8.59832,5.84346 13.29177,5.82056 4.69345,-0.0229 9.40161,-2.21971 12.45019,-5.59769 2.60223,-2.8834 3.5986,-7.17673 3.6665,-11.06015 0.50023,-28.59828 0.21313,-141.60238 0.14723,-167.63253 -0.0199,-7.8686 -9.48657,-16.26431 -17.35095,-16.0057 -7.74742,0.25476 -15.92281,9.10554 -16.02011,16.85654 -0.26315,20.95479 -0.14915,134.25874 0.002,165.70117 z m 11.22318,52.03955 c -5.2328,2.36893 -9.77235,7.60055 -11.08652,13.19224 -0.96978,4.12635 0.36187,9.03322 2.98835,12.36021 3.14553,3.98447 8.49205,6.83592 13.56785,6.91712 4.70933,0.0753 9.45391,-2.6842 12.78702,-6.01194 2.07896,-2.07561 3.4278,-5.051 3.76268,-7.96957 0.45958,-4.00533 -0.47135,-8.3694 -2.55226,-11.82247 -1.71413,-2.84444 -4.52049,-5.23803 -7.62836,-6.40859 -3.69386,-1.39127 -8.24289,-1.88488 -11.83876,-0.257 z" /></clipPath></defs><sodipodi:namedview
   id="namedview41"
   pagecolor="#505050"
   bordercolor="#ffffff"
   borderopacity="1"
   inkscape:pageshadow="0"
   inkscape:pageopacity="0"
   inkscape:pagecheckerboard="1"
   showgrid="false"
   inkscape:zoom="0.70710678"
   inkscape:cx="92.630988"
   inkscape:cy="333.7544"
   inkscape:window-width="1366"
   inkscape:window-height="703"
   inkscape:window-x="0"
   inkscape:window-y="0"
   inkscape:window-maximized="1"
   inkscape:current-layer="Layer_1" />
<path
   style="fill:#ffffff;fill-opacity:1"
   d="M 445.215,478.835 H 66.848 c -23.67,0 -45.079,-12.118 -57.25,-32.418 -12.182,-20.3 -12.802,-44.883 -1.663,-65.781 L 198.889,65.387 c 12.182,-20.17 33.548,-32.222 57.142,-32.222 23.594,0 44.959,12.052 57.152,32.245 l 190.499,314.433 c 11.585,21.692 10.966,46.274 -1.217,66.575 -12.171,20.299 -33.58,32.417 -57.25,32.417 z"
   id="path2"
   clip-path="url(#clipPath13655)"
   inkscape:path-effect="#path-effect13663"
   inkscape:original-d="M445.215,478.835H66.848c-23.67,0-45.079-12.118-57.25-32.418  c-12.182-20.3-12.802-44.883-1.663-65.781L198.889,65.387c12.182-20.17,33.548-32.222,57.142-32.222s44.959,12.052,57.152,32.245  l190.499,314.433c11.585,21.692,10.966,46.274-1.217,66.575C490.294,466.717,468.885,478.835,445.215,478.835z" />

<g
   id="g1130"
   clip-path="url(#clipPath1132)"
   transform="translate(344.36655,24.896512)"><g
     inkscape:label="Clip"
     id="g1128"><path
       style="fill:#241f31"
       d="m 256.031,345.294 c -9.215,0 -16.693,-7.477 -16.693,-16.693 V 161.675 c 0,-9.215 7.477,-16.693 16.693,-16.693 9.216,0 16.693,7.477 16.693,16.693 v 166.926 c 0,9.216 -7.477,16.693 -16.693,16.693 z"
       id="path6" /></g></g>

<g
   id="g10">
</g>
<g
   id="g12">
</g>
<g
   id="g14">
</g>
<g
   id="g16">
</g>
<g
   id="g18">
</g>
<g
   id="g20">
</g>
<g
   id="g22">
</g>
<g
   id="g24">
</g>
<g
   id="g26">
</g>
<g
   id="g28">
</g>
<g
   id="g30">
</g>
<g
   id="g32">
</g>
<g
   id="g34">
</g>
<g
   id="g36">
</g>
<g
   id="g38">
</g>
</svg>
